<svg id="Woman_shopping_character_pose" data-name="Woman shopping character pose" xmlns="http://www.w3.org/2000/svg" viewBox="0 0 2510.44 2567.22"><defs><style>.cls-1{fill:#202020;}.cls-2{fill:#f9cab1;}.cls-3{fill:#692f0e;}.cls-4{fill:#25232f;}.cls-5{fill:#e69a6e;}.cls-6{fill:#b3b3b3;}.cls-7{fill:#f14855;}.cls-8{fill:#b53640;}.cls-9{fill:#fcee21;}.cls-10{fill:#ccc;}.cls-11{fill:#ccc116;}.cls-12{fill:#e6e6e6;}.cls-13{fill:#137e6b;}.cls-14{fill:#19a88e;}.cls-15{fill:#b1d4e0;}.cls-16{fill:#0c2d48;}.cls-17{fill:#1c1a23;}.cls-18{fill:#f56b6c;}.cls-19{fill:#59280c;}.cls-20{fill:#6e360e;}.cls-21{fill:#e39371;}.cls-22{fill:#db414d;}.cls-23{fill:#a33939;}.cls-24{fill:#fff;}.cls-25{fill:#3dafe2;}.cls-26{fill:#2e8bc0;}.cls-27{fill:#222124;}.cls-28{fill:#1a1a1a;}.cls-29{fill:#4e4d50;}.cls-30{fill:#322e2f;}.cls-31{fill:#377e71;}.cls-32{fill:#bdb319;}.cls-33{fill:#999;}.cls-34{fill:#4d4d4d;}</style></defs><g id="Woman_shopping_character_pose-2" data-name="Woman shopping character pose"><g id="woman"><path class="cls-1" d="M901.15,2300s12.65,1.16,17.82,33.22c5.38,33.42-1.37,117.06-7.27,151.21-4.84,28.08-65.24,92.54-78.52,81.6s-53-82.5-45-124.29,41.46-126.36,61.18-152.7S889.37,2294,901.15,2300Z"/><path class="cls-2" d="M820.2,2371c-5.41,22.56-11.43,48.24-15.52,67.36-9.16,42.8,60.36,33.91,82.86,25.06S907.88,2303.72,907.6,2297c1.86-25-53.61-19.13-53.61-19.13S826.89,2343,820.2,2371Z"/><path class="cls-2" d="M949,1903.89c8.94-101.11,11.64-206.68,11.69-219.33.39-87.48-5-134.08-26-141.22s-97.29-19.16-105.29,17.37c-10.26,46.9,1.19,106.92-14,153.26-34.79,106-6.79,188.6-5,245.71,21.34,164.25,34.13,372,34.13,372l60.86,8.32C905.16,2240.22,938.33,2024,949,1903.89Z"/><path class="cls-1" d="M1294.2,2312s-11.8,4.7-7.68,36.91c4.29,33.57,34.43,111.89,49.74,143,12.6,25.57,88.76,70.31,98.41,56.06s27.47-94.12,8-131.95-75.52-109.47-101.88-129.16S1303.82,2303,1294.2,2312Z"/><path class="cls-2" d="M1392,2357.25c11.57,20.11,24.61,43,33.94,60.22,20.89,38.46-48.31,49.6-72.39,47.48s-64.68-147.4-66.32-153.95c-8.86-23.42,46-33.51,46-33.51S1377.62,2332.36,1392,2357.25Z"/><path class="cls-2" d="M1136.3,1945.68c-37.19-94.45-69.64-194.94-73.27-207-25.12-83.8-33.17-130-15-142.81s87.9-45.9,105.9-13.12c23.12,42.08,29.11,102.88,56.81,143,63.37,91.84,59.88,179,74.29,234.26,26,163.58,72.5,366.45,72.5,366.45l-56,25.2C1273.46,2255.88,1180.48,2057.89,1136.3,1945.68Z"/><path class="cls-3" d="M1099.64,121.44c35.69,78.3,43.3,167.13,45.45,253.15s5.69,175.07,43.8,252.22l-342.15,3.41c4-79-4.87-158.07-8.67-237.11S835.81,233.39,859.91,158Z"/><path class="cls-4" d="M1120.54,493.15s47.2-8,76.24,4.94c20.7,9.21,161.46,185.37,240.67,285.87a82.16,82.16,0,0,1-17.77,118.4l-1.42,1A82.15,82.15,0,0,1,1307,886.63c-46.54-59.08-111.09-142.79-118.3-161.57C1177.25,695.33,1081.1,506.31,1120.54,493.15Z"/><path class="cls-2" d="M1495.91,384.26c4-3.58,5.94-9.65,6.63-15.23.56-4.61.4-9.91-3-13.06-1.92-1.77-4.52-2.51-7.11-3.05,2.24-4,1.89-9.64-.52-13.77-3.24-5.55-9-9-14.59-12.25l-21.89-12.74c-5-2.93-10.5-6-16.31-5.45-6.64.58-11.92,5.6-16.61,10.33-4.94,5-9.94,10-13.25,16.21-.83,1.54-3.06,4.68-3.56,4.66-4.65-.21-29.8,88.07-25.92,97.44,3.43,8.26,19.87,39.15,30.48,89.6l58.67-6.58a256.86,256.86,0,0,1,3.38-43.87c9.5-9.51,21.52-64.41,24-90.79Z"/><path class="cls-5" d="M1429.22,414.08a24.54,24.54,0,0,1-3.74-2.67,6.14,6.14,0,0,1-1.92-3.4c-.47-2.65.64-5.65,1.79-8.59l.81-2.07-2.21.14a8.73,8.73,0,0,1-6-2.23,11.24,11.24,0,0,1-3.62-5.78,23.62,23.62,0,0,1-.7-7.31c.09-2.51.43-5.05.68-7.6a56.89,56.89,0,0,0-2,7.47,21.94,21.94,0,0,0-.06,7.92,14.73,14.73,0,0,0,1.34,3.91,12.86,12.86,0,0,0,2.6,3.31,11.28,11.28,0,0,0,5.8,3,15.37,15.37,0,0,0-1.21,8.38,8.52,8.52,0,0,0,1,2.69,9,9,0,0,0,1.85,2.12,24.73,24.73,0,0,0,4.28,2.78,127.52,127.52,0,0,0,17.7,8.13C1440.16,420.86,1434.63,417.55,1429.22,414.08Z"/><path class="cls-5" d="M1432.63,341.65c9.76,1.9,19.51,3.85,29.29,5.66l29.42,5.54.06-.28c-2.38-.87-4.78-1.57-7.18-2.31s-4.81-1.41-7.22-2.07-4.85-1.24-7.27-1.86l-7.3-1.67c-4.88-1-9.76-2.07-14.68-2.91s-9.84-1.68-14.79-2.37l-1-.14-.63.54c-2.58,2.23-5.11,4.52-7.62,6.84L1420,350.2q-1.86,1.77-3.63,3.66l.18.23Z"/><path class="cls-5" d="M1450.53,369.79c3.39.66,6.8,1.16,10.2,1.71,3.6.46,7.18,1,10.8,1.32s7.3.53,10.65,1a19.81,19.81,0,0,1,4.86,1.35,15.47,15.47,0,0,1,4.24,3.07l.24-.16a13.77,13.77,0,0,0-3.85-3.87,16.88,16.88,0,0,0-5-2.14c-3.55-.88-7.16-1.22-10.73-1.8q-10.76-1.63-21.52-3.1h-.07l0,0a114.49,114.49,0,0,0-19.14,9.67l.15.25c1.71-.64,3.35-1.35,5-2l5-1.92,5-1.85"/><path class="cls-2" d="M1422,468.31s-73.57,254.76-78.7,303.06,9.32,117.17,54,121.93,58.54-64.89,63.06-107.43,16-304.15,16-315.75S1429.08,443.59,1422,468.31Z"/><path class="cls-4" d="M1348.47,629.27,1491.4,650s-16.83,127.26-30.08,197-141.27,105.13-141.27,14.88C1320.05,787.41,1348.47,629.27,1348.47,629.27Z"/><path class="cls-6" d="M1663.77,516.23l-8.06,1.85c-.34-1.51-35.46-151.31-113.36-198.36-22.12-13.36-45.88-17.19-70.6-11.38-127.64,30-80.4,268.23-79.9,270.64l-8.1,1.66c-2.07-10.12-49.23-248.3,86.16-280.13,26.94-6.33,52.81-2.18,76.86,12.35C1627.58,361.68,1662.33,509.94,1663.77,516.23Z"/><rect class="cls-7" x="1366.01" y="535.02" width="429.52" height="490.94" transform="translate(-136.67 382.52) rotate(-13.23)"/><rect class="cls-8" x="1370.3" y="571.95" width="106.83" height="490.94" transform="translate(-149.29 347.55) rotate(-13.23)"/><polygon class="cls-9" points="1594.31 986.61 1970.32 743 1720.86 358.3 1677.97 378.17 1881.04 729.03 1518.83 972.15 1594.31 986.61"/><path class="cls-10" d="M1635.2,444.93a3.46,3.46,0,0,0,.54-4.32c-3.66-5.93-90.46-145.34-156.26-158.75-12.42-2.53-23.47-.45-32.84,6.17-64.15,45.39-5.87,279.35-3.36,289.29a3.47,3.47,0,1,0,6.72-1.7c-.6-2.39-59.69-239.26.64-281.93,7.85-5.55,16.83-7.2,27.45-5C1541,301.48,1629,442.82,1629.84,444.25a3.48,3.48,0,0,0,4.78,1.13A4.28,4.28,0,0,0,1635.2,444.93Z"/><polygon class="cls-11" points="1518.91 972.18 1885.9 732.59 1678.06 378.19 1377.98 597.95 1518.91 972.18"/><path class="cls-12" d="M1621.73,457.87a3.46,3.46,0,0,0,.54-4.32c-3.66-5.93-90.46-145.33-156.26-158.74-12.42-2.53-23.47-.46-32.84,6.16-64.15,45.4-5.87,279.36-3.35,289.3a3.47,3.47,0,1,0,6.72-1.7c-.61-2.39-59.69-239.27.63-281.93,7.86-5.56,16.84-7.2,27.45-5,62.9,12.82,150.87,154.17,151.75,155.6a3.47,3.47,0,0,0,4.78,1.12A3.6,3.6,0,0,0,1621.73,457.87Z"/><polygon class="cls-13" points="1476.91 893.3 1824.68 734.5 1662.03 378.67 1623.35 390.1 1751.06 711.58 1414.99 871.69 1476.91 893.3"/><path class="cls-10" d="M1583.57,433.86a2.65,2.65,0,0,0,.89-3.2c-2.1-4.88-52.06-119.71-100.2-137.15-9.09-3.29-17.66-3-25.46,1-53.44,27.1-35.54,210.09-34.74,217.86a2.64,2.64,0,1,0,5.25-.53c-.19-1.87-18.39-187.14,31.88-212.61,6.54-3.31,13.5-3.56,21.27-.74,46,16.67,96.64,133.1,97.15,134.27a2.63,2.63,0,0,0,3.47,1.38A2.57,2.57,0,0,0,1583.57,433.86Z"/><polygon class="cls-14" points="1415.07 871.72 1754.71 715.19 1623.42 390.13 1342.72 538.25 1415.07 871.72"/><path class="cls-12" d="M1572,442.12a2.65,2.65,0,0,0,.89-3.2c-2.1-4.87-52.06-119.7-100.2-137.15-9.09-3.29-17.66-2.95-25.46,1-53.45,27.1-35.54,210.08-34.75,217.86a2.64,2.64,0,0,0,5.26-.54c-.19-1.86-18.38-187.14,31.88-212.6,6.54-3.32,13.5-3.56,21.26-.74,46,16.67,96.65,133.09,97.16,134.27a2.63,2.63,0,0,0,3.47,1.38A3,3,0,0,0,1572,442.12Z"/><path class="cls-2" d="M1375.84,438.26c-3.84-8.46-4.4-38.5.46-52.37s16.44-29.6,21.88-39.41,33.27-19.81,42.42-18.82,6.7,15.31-9,22.43-26.29,65.69-26.46,80.92C1404.87,454.93,1384.56,457.46,1375.84,438.26Z"/><path class="cls-2" d="M1493,389.73s-51.08-11.22-67.94-3.45-15.69,14.73-12,37.58c3.29,20.66,21,25,27.81,21.76s0-29.37,0-29.37Z"/><path class="cls-4" d="M838.53,484.69s-46.6,10.88-68.39,34C754.62,535.23,693,752.12,658.78,875.44A82.16,82.16,0,0,0,721,977.75l1.68.35a82.15,82.15,0,0,0,96.18-58.46C838.89,847.16,866,745,865.42,724.89,864.45,693.06,880,481.57,838.53,484.69Z"/><path class="cls-15" d="M1129.55,1729.36c4.32-52.15-2.22-131.42,9.91-133.63s24.31,86.29,22.6,139.58c-1.09,34.27,1.25,70.71,12,101.28,59.18-9.59,129.8-34.89,129.79-34.84-28.8-138.16-81-281.3-83.91-425.36-1.64-82,.59-165.1-14-244.68S1167,978,1110.13,937.55q-97.47-4-194.78-11.53c-43.65,24.65-85.56,78.05-107.82,133.41-46.28,114.25-17.25,637-94.29,730,167.28,58.59,279.19,52,393.34,51.42C1121.14,1807,1126.42,1767.21,1129.55,1729.36Z"/><path class="cls-2" d="M1154.41,587.64C1154.41,636.26,1078.07,740,999,740S839.51,636.26,839.51,587.64c0-20.65-46.65-74.16-19.57-86.63,0,0,133.57-28.16,179.06-28.16,47.08,0,179.61,29.95,179.61,29.95C1202.57,515.07,1154.41,568,1154.41,587.64Z"/><path class="cls-2" d="M1044.81,351.88l-47.85.81-45.19-.81s-2.32,120.4-43.81,157.2c0,0,24.33,25.59,89,27.19,64.67-1.6,89-27.19,89-27.19C1044.48,472.28,1044.81,351.88,1044.81,351.88Z"/><path class="cls-5" d="M965.8,438.38c12.49-2.18,27.65,11.44,56.84.94,12.37-4.45,20-8.34,28.34-15.31a486.68,486.68,0,0,1-6.17-72.13l-47.85.81-45.19-.81s-1.44,74.6-22.29,124.3a44.07,44.07,0,0,0,8.56-3.39C950.13,467.21,953.31,440.55,965.8,438.38Z"/><path class="cls-8" d="M1203.78,514.89c-42-42-95.75-31.09-140.39-53.51,0,0,8.45,73.36,3.75,88.62-5.77,18.76-38,49.8-54.45,60.82-30-10.34-78.07-52.87-86-60.82-11.29-11.29,3.75-88.62,3.75-88.62C885.79,483.8,832,472.9,790,514.89c-8.81,8.81,40.49,116.62,40.49,116.62s-12.15,15-19,39.45a103,103,0,0,0,17.76,90.14l33.67,44,1.64,162h264.56l1.63-162L1165.06,758a103.22,103.22,0,0,0,15.13-91.77c-6.39-20.15-15.79-33.41-16.9-34.69C1163.29,631.51,1212.58,523.7,1203.78,514.89Z"/><path class="cls-16" d="M1151.69,970.26l9.58-145.2s7.27-31.55,24.62-88.19c10.17-33.17,4.5-60.83-2.05-78.19a112.23,112.23,0,0,0-15.07-27.85c3.38-7.5,13.33-29.79,22.44-52.58,6.57-16.42,11.44-29.9,14.47-40.08,5.35-17.93,4.44-23.61,1.43-26.62-26.68-26.67-57.77-32.78-87.84-38.69-19-3.74-37-7.27-53.76-15.7l-7.48-4.31,1.83,9.43c0,.19,2.66,19.38,5,39.71,4.22,37.34-31,232.78-45,252.39-23.09-20-95.06-215-90.85-252.34,2.3-20.33,6-39.57,6.06-39.76l1.83-9.42-8.58,4.3c-16.77,8.43-34.74,12-53.76,15.7-30.06,5.91-61.16,12-87.84,38.69-3,3-3.92,8.69,1.43,26.62,3,10.18,7.9,23.66,14.47,40.08,9.12,22.79,19.06,45.08,22.44,52.58A112.57,112.57,0,0,0,810,658.68c-6.55,17.36-12.21,45-2.05,78.19,17.36,56.64,31.22,84.59,31.22,84.59l3,150.79Z"/><path class="cls-17" d="M1167,637.07c29.91,42.75,18.25,83.26,4.66,121.43-5.78,16.21-6.94,45.14-29.82,63-15.09,11.32-37.15,10.82-54.41,15,18.86,4.72,47.15-1.89,52.81,14.15,11.32,33.95-2.94,115.93-2.7,119.78l14.11-.09,9.58-145.2s7.27-31.55,24.62-88.19c10.17-33.17,4.5-60.83-2.05-78.19a112.23,112.23,0,0,0-15.07-27.85S1158.41,624.75,1167,637.07Z"/><path class="cls-17" d="M850.75,862.83c0-7.55-1-19.81,5.66-22.64,19.8-8.49,36.75-5.69,58.44-5.69,15.09,1,28.25,4.52,43.34.75-37.73-8.49-73.73.47-104.85-25.94-22.64-19.81-36.19-55-41.85-84.21s5.86-73.27,11.42-81.79,1.62-13.61,2.13-12.48A112.57,112.57,0,0,0,810,658.68c-6.55,17.36-12.21,45-2.05,78.19,17.36,56.64,31.22,84.59,31.22,84.59l3,150.79,10.59-.07C853.32,935.73,851.39,899.28,850.75,862.83Z"/><path class="cls-10" d="M1022.56,761.47a445.91,445.91,0,0,0-70.31-7.23l7.13-21.56-53.76,15c-9.06-84.46-19-179.9,7.63-266.78a1.89,1.89,0,0,0-3.61-1.1C882.57,568.2,893,665,902.11,750.33l.24,2.21,51.22-14.32-6.51,19.69,2.56.05a441.42,441.42,0,0,1,72.26,7.22,2,2,0,0,0,.6,0,1.88,1.88,0,0,0,.08-3.72Z"/><path class="cls-10" d="M1041.16,762.9a288,288,0,0,1,52.42-20.41l-9.2-19.8,43.66,4.56c-7.79-84.57-8-159.65-43.4-239.83a2.13,2.13,0,0,1,.55-2.55,1.36,1.36,0,0,1,2,.78c36.07,81.56,36.11,158,44,243.5l.21,2.22L1089.78,727l8.41,18.08-2,.53a286,286,0,0,0-53.92,20.77,1.1,1.1,0,0,1-.45.13,1.57,1.57,0,0,1-1.49-1.19A2.06,2.06,0,0,1,1041.16,762.9Z"/><path class="cls-3" d="M959.55,35.09A72.25,72.25,0,0,0,920,11.46C889.34,5.13,857,18,833.93,39.23S796,89,784.55,118.18C755.07,193.43,746.13,275,739.8,355.53c22.6-18.24,38.27-44.65,49.09-71.88,12.78-32.15,19.87-66.25,31.26-98.92s27.9-64.86,55.05-86.29,66.8-29.7,97-12.85l11.86-10.41S969.79,47,959.55,35.09Z"/><path class="cls-3" d="M755.58,310.77l3.88-.1a66.66,66.66,0,0,0,25.68-6.88,80,80,0,0,0,8.36-4.71,95.05,95.05,0,0,0,8.37-6.11c11.06-9,21-21.58,28.15-34.81a135.15,135.15,0,0,0,8.89-19.93c1.17-3.29,2.06-6.46,3-9.51s1.57-6,2.22-8.75c1.23-5.54,2.65-13.15,3.94-22.16s2.48-19.42,3.86-30.55,3-23,5.58-34.84c.68-2.95,1.32-5.93,2.14-8.86s1.56-5.88,2.52-8.74a130,130,0,0,1,6.79-16.74,118,118,0,0,1,19.14-28.4A84,84,0,0,1,910.87,52a66,66,0,0,1,19-6.41c2.38-.37,4.26-.61,5.54-.68l2-.15h-2c-1.29,0-3.18.06-5.61.25A66.8,66.8,0,0,0,910,50.07,86.28,86.28,0,0,0,885,66.63a122,122,0,0,0-22.12,28.24A135.47,135.47,0,0,0,854.55,112c-1.23,3-2.29,6-3.28,9s-1.93,6-2.82,9.08c-3.5,12.14-5.86,24.21-7.92,35.37s-3.73,21.43-5.37,30.18-3.19,16-4.36,21.27c-.62,2.62-1.27,5.4-2,8.31s-1.47,5.94-2.37,9a154,154,0,0,1-6.78,18.84c-5.51,12.73-13.29,25.27-22.46,34.89s-19.6,16.09-27.83,19.17a71.3,71.3,0,0,1-10,2.95Z"/><path class="cls-3" d="M832,18.54l2-.45c1.32-.28,3.19-.77,5.55-1.2,4.69-1,11.22-2.09,18.43-2.91a189.4,189.4,0,0,1,22.59-1.19c7.46,0,14.45.6,20,1,1.4.16,3,.31,4.91.45s3.94.48,6.2.76l3.49.59c.6.11,1.22.19,1.84.31l1.87.41c1.26.3,2.6.53,3.91.88l4,1.11a99.74,99.74,0,0,1,16.78,6.84,91.3,91.3,0,0,1,15.9,10.6,79.19,79.19,0,0,1,21,26.18L982,64.87l1,2.7.92,2.37c.28.74.44,1.44.63,2l1.15,3.9-.58-4c-.1-.64-.16-1.38-.34-2.15l-.58-2.51c-.21-.9-.43-1.87-.67-2.89l-1-3.15a71.93,71.93,0,0,0-2.69-7.07c-.49-1.27-1.21-2.47-1.83-3.77a42.5,42.5,0,0,0-2.11-3.9,83.94,83.94,0,0,0-11.63-15.59,96,96,0,0,0-15.74-13.62,103.15,103.15,0,0,0-17.73-9.7L926.4,5.79c-1.44-.55-2.88-1-4.27-1.41l-2.06-.66c-.68-.2-1.36-.36-2-.53l-3.86-1c-2.5-.52-4.81-1-6.89-1.31s-3.93-.5-5.49-.67a95.57,95.57,0,0,0-22.08,1.08,131,131,0,0,0-23.24,6,151.58,151.58,0,0,0-17.58,7.54c-2.18,1.05-3.87,2-5.06,2.67Z"/><path class="cls-18" d="M980.34,53.44c-19.86-.71-40,7-56.18,21.13a92.75,92.75,0,0,0-12.43,13.27c-1.18,1.52-3.14-.47-2-2,13.76-17.84,33-29.91,53.14-34a73.92,73.92,0,0,1,17.32-1.45c1.71.06,1.83,3.11.11,3Z"/><path class="cls-18" d="M978.88,48c-20.15-.81-40.78,5.9-57.92,19.14-4.59,3.55-9.38,8-10.84,14.31a1.35,1.35,0,1,1-2.63-.54c1.36-5.87,5.13-10.39,9.32-14a85.85,85.85,0,0,1,13.76-9.6,93.31,93.31,0,0,1,30.32-11.1,83.42,83.42,0,0,1,17.88-1.21,1.38,1.38,0,0,1,1.4,1.39c0,.74-.57,1.69-1.29,1.66Z"/><path class="cls-2" d="M1088.59,273.94c-.17,10.5-.32,19.83.67,26.93s3.29,12.15,8.38,13,11.08-3.33,15.75-11.77a58.5,58.5,0,0,0,5.66-15.21,78.64,78.64,0,0,0,1.82-19c-.35-13.34-4-24.56-8.57-31.29s-9.89-9.18-14.38-6.8-6.7,8.34-7.85,16.09S1088.8,263.43,1088.59,273.94Z"/><path class="cls-5" d="M1102.5,297.77c9.48-1.67,14.93-42.42,9-53.33-3.69-6.8-12.45-7-15-2.49,2.84,32.66,9.46,42.7,1.14,42.61C1086.33,284.43,1096.32,298.86,1102.5,297.77Z"/><path class="cls-2" d="M972.68,91.38c-60,5.08-111.53,32.11-101.66,126.17,0,0,14.17,105.2,32.18,131,12.13,17.34,81.15,78.8,124.35,74.13l8.3-.9c27.33-7.42,66.32-67.3,71.16-96.74,3.44-20.87-8-132.09-8-132.09C1088.5,98.92,1032.36,83.53,972.68,91.38Z"/><path class="cls-3" d="M1117.7,173.78v-.2l0-.2C1099,69.69,1011.87,46.56,963.93,55L953.11,57c-48,8.47-121.84,60-103.87,163.85l0,.2.05.19c.69,2.59,11.21,42.07,20.65,76,4.64-32.9,18.22-88.27,24.82-120.59,7.64,6.91,4.48,57.05,4.48,57.05s139.63-40.62,174-98.09c12.77,15.17,30.67,47.34,36.8,66.44,10.05,32.22,5.92,70.67,12.37,100.13C1122.45,302,1118.08,178,1117.7,173.78Z"/><path class="cls-3" d="M1058.8,135.54s6.76,2.33,2.17,12.45-52.18,58.19-102.71,69.6C958.26,217.59,1038.17,183.54,1058.8,135.54Z"/><path class="cls-19" d="M911.27,80.15c-1.42,1.14-2.92,2.82-3.07,4.47a2.73,2.73,0,0,0,.37,1.65,3.61,3.61,0,0,0,4,1.3,10.48,10.48,0,0,0,3.82-2.29q15.35-12.45,30.69-24.93A121.31,121.31,0,0,0,911.27,80.15Z"/><path class="cls-19" d="M955.45,102.8c.1,2,.54,4.58,1.86,5.54a1.77,1.77,0,0,0,.49.26c1.16.43,2.26-.53,3-1.65,2.18-3.38,2.54-8.4,2-13.09S960.88,84.61,960,80s-1.82-12-.69-16.26A130.64,130.64,0,0,0,955.45,102.8Z"/><path class="cls-19" d="M958.37,60.18A118.59,118.59,0,0,0,946.91,66l-2.75,1.64-2.73,1.71-2.66,1.79L936.15,73c-.87.63-1.74,1.26-2.63,1.86l-2.64,1.87c-.85.66-1.69,1.32-2.47,2s-1.5,1.51-2.18,2.3-1.32,1.65-1.94,2.51-1.17,1.74-1.7,2.65-1,1.86-1.44,2.83a22.06,22.06,0,0,0-1,3.06l.56.4a30.31,30.31,0,0,0,3-1.57c1-.55,1.86-1.13,2.74-1.73S928.15,88,929,87.41s1.65-1.25,2.44-1.89a34.83,34.83,0,0,0,4.39-4.19l2-2.26c.69-.75,1.4-1.47,2.12-2.19l2.22-2.11,2.26-2.07,2.29-2.06,2.33-2c3.12-2.71,6.38-5.3,9.7-7.88Z"/><path class="cls-19" d="M1029.48,77.4c-.81-1.17-1.67-2.29-2.56-3.4s-1.91-2.08-2.91-3.09-2.1-1.88-3.19-2.79-2.27-1.67-3.46-2.43-2.47-1.36-3.74-2l-3.89-1.64c-1.32-.49-2.63-1-3.92-1.53l-3.95-1.41-4-1.23-4.05-1-4.08-.82a80.69,80.69,0,0,0-16.46-1.17l0,.73a101.91,101.91,0,0,1,15.61,3.94l3.76,1.35,3.68,1.51L999.9,64l3.53,1.76c1.15.65,2.3,1.3,3.42,2l3.28,2.17c1.08.74,2.15,1.48,3.27,2.14s2.2,1.37,3.35,2,2.26,1.31,3.43,1.93,2.29,1.31,3.49,1.93,2.36,1.3,3.6,1.9a42,42,0,0,0,3.81,1.82l.51-.51A35.26,35.26,0,0,0,1029.48,77.4Z"/><path class="cls-19" d="M993.8,69.38a19.5,19.5,0,0,0-1.18-1.68,12.07,12.07,0,0,0-1.41-1.45,12.59,12.59,0,0,0-1.66-1.15c-1.2-.66-2.45-1.22-3.61-1.88l-1.77-.93-1.8-.87-1.84-.77-1.86-.71a45.36,45.36,0,0,0-7.63-2l-.26.67c1.88,1.3,3.71,2.6,5.46,4-.73-.24-1.47-.46-2.22-.64l-.36.63c1.46,1.47,2.89,2.88,4.21,4.37.68.73,1.33,1.47,2,2.22s1.27,1.46,1.88,2.21a23.28,23.28,0,0,1,1.6,2.44,6.48,6.48,0,0,0,1.92,2,13.66,13.66,0,0,0,2.65,1.46,13.39,13.39,0,0,0,3.53,1l.58-.43a9,9,0,0,0,0-2.69c.32.12.64.24,1,.34a14.14,14.14,0,0,0,2.2.55l.55-.47a12.19,12.19,0,0,0-1-4.36A19.17,19.17,0,0,0,993.8,69.38Z"/><path class="cls-3" d="M1122,337.52c.87-69.07-18.79-145.36-50.52-208.43l30.54,2.13s8,17.88,11.93,32.44,40.47,195.42,36.42,288.9a985.9,985.9,0,0,0-30.25-218.19A452.09,452.09,0,0,1,1122.46,335"/><path class="cls-3" d="M852.28,190.51c-20.84,103.59,19,214.16,120.84,276.9-93.83-73.92-105-192.39-64.24-298.52Z"/><path class="cls-5" d="M1029.47,309.73c-.73-.94-3.71.18-6.66,2.49a14.94,14.94,0,0,0-3.7,4l-.55.65c-1.69,2-3.4,3.95-5.65,4.21s-4.71-.6-7.24-1.38a27,27,0,0,0-2.91-.76,18.82,18.82,0,0,0-3.29-.89c-3.69-.66-6.84-.25-7.05.92s2.6,2.65,6.28,3.32,6.65.27,7-.82a29.63,29.63,0,0,0,3.16,1.23,10,10,0,0,0,4.36.41,7.76,7.76,0,0,0,4-2,17.23,17.23,0,0,0,2.19-2.64c1.22.16,3.64-.93,6-2.81C1028.41,313.29,1030.21,310.66,1029.47,309.73Z"/><path class="cls-5" d="M991.7,303.25a19,19,0,0,0,5.69-16.85c-1.5-10.93-9.57-36.46-12.7-41.36s-25.86-6-20.14-2.23C974.07,249.08,988.77,257.32,991.7,303.25Z"/><path class="cls-20" d="M962.18,226.5c-1.61-3.34-22.6-3.41-32.44-.49-18.67,5.53-20.83,8.72-28.83,30.07a35.37,35.37,0,0,0-1.45,14s3.47-28.21,32.77-32.53C964,232.83,963.8,229.84,962.18,226.5Z"/><path class="cls-20" d="M1021,212.09c.78-2.27,21.17-9.52,31.42-10,19.43-1,22.5,1.32,37,18.83a35.27,35.27,0,0,1,5.93,12.71s-12.47-25.5-41.55-19.85C1022.26,219.86,1020.17,214.37,1021,212.09Z"/><path class="cls-21" d="M1013.66,377.12s14.64-.64,20.62-4.61C1034.28,372.51,1026.76,385.11,1013.66,377.12Z"/><path class="cls-22" d="M1065.27,310.4s-5.32,8.68-5.81,9.07c-2.19,3.68-9,17.09-12,27.78-2.62,9.19-7.68,16.57-22.12,19.83-13.43,3-23.91-.48-30.53-8-7.88-8.94-19.84-17.85-24.25-21-.71-.16-7.68-4.44-8.45-4.62,0,0,18.5,3,26.27-.38s21.54-3.6,26.74-4.69c4.54-.95,14.6-7.47,35.13-8.18C1054.45,319.3,1065.27,310.4,1065.27,310.4Z"/><path class="cls-23" d="M980.61,338.74s5.55,2.9,16.35,2.56a115.28,115.28,0,0,0,20.27-2.64,125.11,125.11,0,0,0,22-7.36c8.84-3.88,12.77-8.83,12.77-8.83l-6.63,13.88c-4.54,11.7-13.38,13.78-25.6,16.52s-21.38.82-25.82-4Z"/><path class="cls-24" d="M1045.36,336.35l6.63-13.88s-3.93,4.95-12.77,8.83a125.11,125.11,0,0,1-22,7.36A115.28,115.28,0,0,1,997,341.3c-10.8.34-16.35-2.56-16.35-2.56l12.4,9.38C1006,356,1031.1,354.09,1045.36,336.35Z"/><path class="cls-21" d="M918.78,265.69a42.76,42.76,0,0,1,4.31-4.12,36.48,36.48,0,0,1,4.75-3.27,33.54,33.54,0,0,1,5.13-2.38l1.34-.45,1.35-.38,1.37-.35c.46-.08.92-.18,1.38-.28-.47,0-.95,0-1.42,0l-1.42.13-1.4.25-1.39.33a24.23,24.23,0,0,0-5.52,2.07,21.79,21.79,0,0,0-8.48,8.42Z"/><path d="M909.84,264.92a8.31,8.31,0,0,1-.82-1,47,47,0,0,0,10.9,14.47c7.39-.49,14.15-4.22,21.39-5.7,11.35-2.32,22.05-1,31.67,7.35-1.78-8.95-8.32-14.85-16.67-18.7-8.59-4-20.61-3.09-28.73,1-3.05,1.55-5.89,3.69-9.15,4.58A8.78,8.78,0,0,1,909.84,264.92Z"/><path class="cls-21" d="M1074.69,235.41a42,42,0,0,0-5.51-2.21,36,36,0,0,0-5.61-1.26,33.26,33.26,0,0,0-5.63-.29l-1.41.08-1.4.16-1.39.19c-.46.09-.93.18-1.4.25l1.34-.5,1.37-.41,1.39-.3,1.41-.21a24.08,24.08,0,0,1,5.88-.14,21.6,21.6,0,0,1,11,4.64Z"/><path d="M1082.7,231.35a7.4,7.4,0,0,0,.4-1.26,47.61,47.61,0,0,1-4.86,17.53c-7,2.32-14.69,1.38-22,2.72-11.39,2.09-20.86,7.31-26.75,18.7-1.61-9,2.32-16.92,8.68-23.63,6.53-6.89,18-10.59,27.07-9.8,3.4.29,6.82,1.22,10.17.82A8.83,8.83,0,0,0,1082.7,231.35Z"/><path class="cls-2" d="M907.43,308.18c4,9.77,7.52,18.45,9.06,25.46s.94,12.55-4.1,15.22-12.86.89-20.83-5.31a57.66,57.66,0,0,1-11.47-12.18,72.73,72.73,0,0,1-8.78-17.08c-4.47-12.61-4.7-24.44-2.33-32.4s7.07-12.17,12.66-11.57,10.07,5.37,14.09,12.21S903.4,298.42,907.43,308.18Z"/><path class="cls-5" d="M901.43,335.53c-10.56,1.87-31.07-34.29-28.8-46.65,1.41-7.7,10.56-11.06,14.89-7.77,1.66,32,5.52,43.39,14.25,40.29C913.61,317.18,908.34,334.31,901.43,335.53Z"/><path class="cls-2" d="M608.8,448.75c-4-3.58-5.93-9.66-6.61-15.24-.55-4.61-.39-9.91,3-13.06,1.92-1.77,4.52-2.5,7.11-3-2.24-4-1.88-9.64.53-13.77,3.24-5.55,9-9,14.61-12.23l21.9-12.72c5-2.92,10.51-5.95,16.32-5.43,6.64.59,11.91,5.61,16.6,10.35,4.93,5,9.92,10.05,13.23,16.22.82,1.55,3.05,4.69,3.55,4.67,4.65-.21,29.7,88.1,25.81,97.47-3.43,8.26-19.91,39.12-30.58,89.56l-58.66-6.64A256.51,256.51,0,0,0,632.32,541c-9.5-9.52-21.46-64.43-23.87-90.81Z"/><path class="cls-5" d="M675.46,478.64A24.51,24.51,0,0,0,679.2,476a6.19,6.19,0,0,0,1.93-3.4c.47-2.65-.64-5.65-1.78-8.59l-.81-2.08,2.21.15a8.73,8.73,0,0,0,6-2.23,11.22,11.22,0,0,0,3.63-5.78,23.83,23.83,0,0,0,.71-7.3c-.1-2.51-.43-5.05-.68-7.6a53.89,53.89,0,0,1,1.94,7.47,21.94,21.94,0,0,1,.06,7.92,14.41,14.41,0,0,1-1.35,3.91,12.86,12.86,0,0,1-2.6,3.31,11.35,11.35,0,0,1-5.8,3,15.36,15.36,0,0,1,1.19,8.38,8.28,8.28,0,0,1-1.05,2.69,9,9,0,0,1-1.85,2.12,24.65,24.65,0,0,1-4.28,2.77A126.9,126.9,0,0,1,659,488.81C664.51,485.41,670,482.11,675.46,478.64Z"/><path class="cls-5" d="M672.13,406.2c-9.76,1.9-19.52,3.83-29.3,5.63l-29.42,5.51-.06-.28c2.38-.87,4.78-1.56,7.18-2.3s4.81-1.41,7.23-2.07,4.84-1.22,7.26-1.84l7.3-1.66c4.89-1,9.77-2.06,14.69-2.9s9.84-1.67,14.79-2.35l1-.14.63.54c2.58,2.23,5.11,4.53,7.62,6.85l3.68,3.58q1.86,1.77,3.62,3.67l-.17.22Z"/><path class="cls-5" d="M654.19,434.33c-3.38.66-6.79,1.15-10.2,1.7-3.59.45-7.18,1-10.79,1.3s-7.31.53-10.66,1a19.29,19.29,0,0,0-4.85,1.34,15.13,15.13,0,0,0-4.25,3.06l-.24-.16a13.77,13.77,0,0,1,3.86-3.86,16.82,16.82,0,0,1,5-2.14c3.56-.87,7.17-1.21,10.74-1.79q10.75-1.62,21.53-3.07h.06l.06,0a114,114,0,0,1,19.12,9.69l-.15.25c-1.7-.65-3.35-1.36-5-2l-5-1.92-5-1.86"/><path class="cls-2" d="M682.62,532.88S755.91,787.72,761,836s-9.45,117.17-54.19,121.87-58.47-64.95-62.95-107.49S628.2,546.23,628.21,534.63,675.57,508.15,682.62,532.88Z"/><path class="cls-4" d="M756,693.92,613,714.5s16.69,127.28,29.86,197.06,141.15,105.29,141.25,15C784.22,852.09,756,693.92,756,693.92Z"/><polygon class="cls-11" points="488.1 1245.53 0 928.53 324.61 429.14 380.3 455.02 116 910.5 586.18 1226.86 488.1 1245.53"/><path class="cls-10" d="M430.4,529.82a4,4,0,0,1-.63-5c4.26-6.88,105.2-168.6,181.6-184.08,14.42-2.92,27.25-.5,38.12,7.2,74.4,52.77,6.45,324.3,3.52,335.83a4,4,0,1,1-7.8-2c.7-2.77,69.61-277.67-.38-327.28-9.11-6.46-19.53-8.38-31.86-5.88-73,14.8-175.33,178.77-176.36,180.43a4,4,0,0,1-5.54,1.3A3.91,3.91,0,0,1,430.4,529.82Z"/><polygon class="cls-9" points="586.06 1226.89 109.68 915.13 380.18 455.05 769.68 740.95 586.06 1226.89"/><path class="cls-12" d="M446,544.87a4,4,0,0,1-.63-5C449.65,533,550.59,371.26,627,355.78c14.42-2.93,27.25-.5,38.12,7.2,74.41,52.78,6.45,324.29,3.52,335.83a4,4,0,1,1-7.8-2c.7-2.77,69.59-277.68-.38-327.28-9.11-6.45-19.53-8.37-31.86-5.87-73,14.79-175.33,178.77-176.36,180.42a4,4,0,0,1-5.54,1.31A4.47,4.47,0,0,1,446,544.87Z"/><polygon class="cls-25" points="613.56 1050.52 210.06 865.74 399.33 452.87 444.22 466.19 295.56 839.22 685.47 1025.51 613.56 1050.52"/><path class="cls-10" d="M490.34,517a3.07,3.07,0,0,1-1-3.71c2.45-5.67,60.59-138.9,116.5-159.09,10.55-3.81,20.5-3.41,29.55,1.19,62,31.53,41,243.92,40,253a3.07,3.07,0,1,1-6.1-.63c.22-2.17,21.59-217.22-36.73-246.85-7.59-3.85-15.66-4.14-24.69-.88C554.45,379.31,495.53,514.4,494.94,515.76a3.06,3.06,0,0,1-4,1.6A4,4,0,0,1,490.34,517Z"/><polygon class="cls-26" points="685.39 1025.55 291.31 843.41 444.14 466.22 769.8 638.53 685.39 1025.55"/><path class="cls-12" d="M503.8,526.65a3.06,3.06,0,0,1-1-3.71c2.45-5.67,60.58-138.9,116.5-159.09,10.55-3.81,20.49-3.41,29.55,1.19,62,31.53,41,243.92,40,253a3.07,3.07,0,1,1-6.1-.63c.22-2.17,21.58-217.22-36.73-246.85-7.59-3.85-15.67-4.14-24.69-.88C567.91,388.92,509,524,508.4,525.37a3.06,3.06,0,0,1-4,1.6A3.12,3.12,0,0,1,503.8,526.65Z"/><path class="cls-2" d="M728.81,502.88c3.86-8.46,4.45-38.49-.4-52.37s-16.4-29.62-21.84-39.44-33.24-19.84-42.39-18.86-6.72,15.3,9,22.44,26.22,65.72,26.37,81C699.77,519.51,720.07,522.07,728.81,502.88Z"/><path class="cls-2" d="M611.72,454.22s51.09-11.17,67.94-3.38,15.68,14.75,12,37.6c-3.32,20.65-21,25-27.83,21.73s0-29.37,0-29.37Z"/></g><g id="barrow_and_bags" data-name="barrow and bags"><path class="cls-27" d="M2362,2383.94H1548.62a7.37,7.37,0,0,1-7.37-7.38V2217.78a7.36,7.36,0,0,1,3.79-6.44l69.06-38.46V1984.62a7.38,7.38,0,1,1,14.75,0v192.6a7.38,7.38,0,0,1-3.78,6.44L1556,2222.11v147.08h806a7.38,7.38,0,1,1,0,14.75Z"/><path class="cls-27" d="M2169.28,2189.49H1654.34a7.38,7.38,0,1,1,0-14.75h512l10.07-9.47H1623.35a7.38,7.38,0,1,1,0-14.75H2195a7.38,7.38,0,0,1,5.05,12.75l-25.76,24.22A7.35,7.35,0,0,1,2169.28,2189.49Z"/><circle class="cls-28" cx="1681.04" cy="2447.16" r="54.5"/><circle class="cls-28" cx="1867.69" cy="2447.16" r="54.5"/><circle class="cls-28" cx="2202.52" cy="2447.16" r="54.5"/><circle class="cls-28" cx="2382.18" cy="2447.16" r="54.5"/><rect class="cls-29" x="1665.24" y="2359.65" width="35.52" height="74.51"/><rect class="cls-29" x="1849.93" y="2359.65" width="35.52" height="74.51"/><rect class="cls-29" x="2184.76" y="2360.6" width="35.52" height="73.56"/><rect class="cls-29" x="2364.42" y="2360.6" width="35.52" height="73.56"/><path class="cls-27" d="M2502.21,1805.11H1766.26a3,3,0,1,1,0-6h736a3,3,0,0,1,0,6Z"/><path class="cls-27" d="M2502.21,1754.31H1766.26a3,3,0,1,1,0-6h736a3,3,0,0,1,0,6Z"/><path class="cls-27" d="M2502.21,1703.52H1766.26a3,3,0,1,1,0-6h736a3,3,0,0,1,0,6Z"/><path class="cls-27" d="M2502.21,1652.72H1766.26a3,3,0,1,1,0-6h736a3,3,0,0,1,0,6Z"/><path class="cls-27" d="M2502.21,1603.18H1766.26a3,3,0,1,1,0-6h736a3,3,0,0,1,0,6Z"/><path class="cls-27" d="M2502.21,1551.13H1766.26a3,3,0,1,1,0-6h736a3,3,0,0,1,0,6Z"/><path class="cls-27" d="M2377.13,1500.33H1766.26a3,3,0,1,1,0-6h610.87a3,3,0,1,1,0,6Z"/><path class="cls-27" d="M2176.64,1449.54H1766.26a3,3,0,1,1,0-6h410.38a3,3,0,0,1,0,6Z"/><path class="cls-27" d="M1964.65,1398.74H1766.26a3,3,0,1,1,0-6h198.39a3,3,0,0,1,0,6Z"/><path class="cls-27" d="M1428.29,1420.34a8.23,8.23,0,0,1-1.6-16.31l338-67.21a8.23,8.23,0,1,1,3.21,16.14l-338,67.22A8.06,8.06,0,0,1,1428.29,1420.34Z"/><path class="cls-27" d="M2502.21,1541.7a8.34,8.34,0,0,1-2-.25c-106.08-26.8-733.69-186.5-740-188.11a8.23,8.23,0,0,1,4.06-16c6.33,1.61,633.93,161.31,740,188.11a8.23,8.23,0,0,1-2,16.21Z"/><path class="cls-27" d="M2380.25,1655.33a8.23,8.23,0,0,1-5.56-14.3l81.94-75.12,40-36.7a8.23,8.23,0,0,1,11.09,12.16h0l-40,36.68-82,75.12A8.23,8.23,0,0,1,2380.25,1655.33Z"/><path class="cls-27" d="M2374.62,1992a8.24,8.24,0,0,1-5.85-14L2494,1851.71V1536.46a8.23,8.23,0,0,1,16.46,0V1855.1a8.21,8.21,0,0,1-2.39,5.79L2380.46,1989.6A8.17,8.17,0,0,1,2374.62,1992Z"/><path class="cls-27" d="M2502.21,1863.33H1766.26a8.24,8.24,0,0,1-8.24-8.23V1291.84a8.24,8.24,0,0,1,16.47,0v555h727.72a8.23,8.23,0,0,1,0,16.46Z"/><path class="cls-27" d="M1427.46,1987.45a8.23,8.23,0,0,1-2.83-16l338.79-124.12a8.23,8.23,0,0,1,11.07,7.73v124a8.24,8.24,0,0,1-16.47,0V1866.88L1430.29,1987A8.24,8.24,0,0,1,1427.46,1987.45Z"/><path class="cls-27" d="M1343.17,1400.6a21.7,21.7,0,0,1-4.72-42.88l486.28-108.91a21.7,21.7,0,1,1,9.48,42.35l-486.28,108.91A22.18,22.18,0,0,1,1343.17,1400.6Z"/><path class="cls-27" d="M1617.37,1912.31a8.41,8.41,0,0,1-8.42-8.41V1376.69a8.42,8.42,0,1,1,16.84,0V1903.9A8.41,8.41,0,0,1,1617.37,1912.31Z"/><path class="cls-27" d="M1514,1948.64a8.41,8.41,0,0,1-8.42-8.41V1402.54a8.42,8.42,0,0,1,16.83,0v537.69A8.41,8.41,0,0,1,1514,1948.64Z"/><path class="cls-27" d="M1699.63,1886a8.41,8.41,0,0,1-8.41-8.42V1359.32a8.42,8.42,0,1,1,16.83,0v518.22A8.42,8.42,0,0,1,1699.63,1886Z"/><path class="cls-27" d="M1927.23,1990.36a7.59,7.59,0,0,1-5.35-13c.27-.28,109-108.48,126.08-125.45V1420.39a7.59,7.59,0,1,1,15.18,0V1855.1a7.57,7.57,0,0,1-2.24,5.38l-128.32,127.68A7.55,7.55,0,0,1,1927.23,1990.36Z"/><path class="cls-27" d="M2208.11,1986.58a7.11,7.11,0,0,1-5.56-11.52l98.72-124.38a7.11,7.11,0,0,1,11.14,8.83l-98.73,124.38A7.09,7.09,0,0,1,2208.11,1986.58Z"/><path class="cls-27" d="M2306.84,1852.87a7.11,7.11,0,0,1-7.11-7.11V1486.53a7.11,7.11,0,1,1,14.22,0v359.23A7.11,7.11,0,0,1,2306.84,1852.87Z"/><path class="cls-27" d="M1427.46,1709.81a8.23,8.23,0,0,1-2.36-16.11l338.8-101.4a8.23,8.23,0,0,1,4.72,15.77l-338.8,101.4A8.42,8.42,0,0,1,1427.46,1709.81Z"/><path class="cls-27" d="M1430.5,1843.08a8.23,8.23,0,0,1-2.36-16.12l329.77-98.7a8.23,8.23,0,0,1,4.72,15.77l-329.77,98.7A8.43,8.43,0,0,1,1430.5,1843.08Z"/><path class="cls-27" d="M1427.46,1559.75a8.23,8.23,0,0,1-2.36-16.12l338.8-101.39a8.23,8.23,0,0,1,4.72,15.77l-338.8,101.39A8.08,8.08,0,0,1,1427.46,1559.75Z"/><path class="cls-27" d="M2079.28,1981.61a7.11,7.11,0,0,1-5.51-11.6l97.36-119.4a7.1,7.1,0,1,1,11,9L2084.79,1979A7.08,7.08,0,0,1,2079.28,1981.61Z"/><path class="cls-27" d="M1657.06,1986.16a7.11,7.11,0,0,1-3-13.54l262.54-123.95a7.11,7.11,0,1,1,6.07,12.85l-262.55,124A7.1,7.1,0,0,1,1657.06,1986.16Z"/><g id="bags"><path class="cls-30" d="M2381.59,1356.91l-8,0c0-1.66.1-166-62.84-234-17.88-19.3-39.41-29.1-64-29.1-126.85,0-135.1,259.29-135.17,261.91l-8-.25c.3-11,8.62-270.25,143.17-270.25,26.78,0,50.22,10.64,69.66,31.64C2381.72,1187.34,2381.62,1350,2381.59,1356.91Z"/><rect class="cls-14" x="2037.14" y="1349.2" width="415.54" height="524.47"/><rect class="cls-31" x="2037.14" y="1349.2" width="103.36" height="524.47"/><g id="bag"><polygon class="cls-32" points="1709.09 1929.5 1532 1929.5 1595.68 1307.36 1709.09 1307.36 1709.09 1929.5"/><polygon class="cls-9" points="1595.68 1307.36 2004.32 1307.36 2092.09 1929.5 1683.45 1929.5 1595.68 1307.36"/><path class="cls-30" d="M1845.89,1584.65c34.28,0,64.41-13.4,84.85-37.72,20.87-24.83,29-57.75,22.89-92.7l-22.78-130.46a5.63,5.63,0,0,0-11.09,1.94l22.78,130.45c5.53,31.63-1.73,61.29-20.42,83.52-18.26,21.74-45.34,33.71-76.23,33.71-65.67,0-128.42-53.46-139.9-119.16L1683.43,1325a5.63,5.63,0,0,0-11.09,1.94l22.56,129.18C1707.27,1527,1775,1584.65,1845.89,1584.65Z"/></g><g id="bag-2" data-name="bag"><polygon class="cls-8" points="2119.31 1938.06 2011.3 1938.06 2050.14 1558.59 2119.31 1558.59 2119.31 1938.06"/><polygon class="cls-7" points="2050.14 1558.59 2299.38 1558.59 2352.92 1938.06 2103.67 1938.06 2050.14 1558.59"/><path class="cls-30" d="M2202.75,1727.72c20.91,0,39.29-8.17,51.76-23,12.73-15.14,17.69-35.22,14-56.54l-13.9-79.57a3.43,3.43,0,0,0-6.76,1.18l13.9,79.57c3.37,19.29-1.06,37.38-12.46,51-11.14,13.25-27.65,20.55-46.5,20.55-40.05,0-78.33-32.6-85.33-72.68l-13.76-78.79a3.43,3.43,0,1,0-6.76,1.18l13.76,78.79C2118.2,1692.56,2159.52,1727.72,2202.75,1727.72Z"/></g><g id="bag-3" data-name="bag"><rect class="cls-33" x="1851.87" y="1661.33" width="283.15" height="298.95"/><polygon class="cls-34" points="2135.03 1661.33 1851.87 1661.33 1905.86 1625.58 2081.05 1625.58 2135.03 1661.33"/><path class="cls-33" d="M1910.58,1689.05l-3.32-.06c.73-45.33,10.21-87.74,26.69-119.43,16.7-32.1,38.84-49.78,62.35-49.78,45.67,0,83.75,67.1,88.58,156.08l-3.32.18c-2.28-42-12.26-80.73-28.11-109.11s-36.08-43.83-57.15-43.83c-22.21,0-43.3,17-59.4,48C1920.65,1602.33,1911.3,1644.22,1910.58,1689.05Z"/><path class="cls-33" d="M1914.67,1656.48l-3.13-.06c.69-45.33,9.63-87.74,25.17-119.43,15.75-32.1,36.62-49.79,58.78-49.79,43.06,0,79,67.11,83.52,156.09l-3.13.18c-2.15-42-11.56-80.73-26.5-109.11s-34-43.83-53.89-43.83c-20.93,0-40.82,17-56,48C1924.17,1569.76,1915.36,1611.65,1914.67,1656.48Z"/></g><g id="bag-4" data-name="bag"><rect class="cls-7" x="1567.32" y="1659.52" width="283.15" height="298.95"/><polygon class="cls-8" points="1850.48 1659.52 1567.32 1659.52 1621.3 1623.77 1796.49 1623.77 1850.48 1659.52"/><path class="cls-7" d="M1626,1687.24l-3.32,0c.74-45.34,10.22-87.75,26.7-119.43,16.7-32.11,38.84-49.79,62.34-49.79,45.67,0,83.75,67.1,88.58,156.08l-3.31.18c-2.28-42-12.26-80.73-28.11-109.11s-36.08-43.83-57.16-43.83c-22.2,0-43.29,17-59.39,48C1636.1,1600.52,1626.75,1642.41,1626,1687.24Z"/><path class="cls-7" d="M1630.12,1654.67l-3.13-.05c.69-45.34,9.63-87.75,25.17-119.43,15.74-32.11,36.62-49.79,58.78-49.79,43.06,0,79,67.1,83.52,156.08l-3.13.18c-2.15-42-11.56-80.73-26.51-109.11s-34-43.83-53.88-43.83c-20.94,0-40.82,17-56,48C1639.62,1568,1630.8,1609.84,1630.12,1654.67Z"/></g></g><path class="cls-27" d="M2366.79,1658.59a8.13,8.13,0,0,1-1.95-.24l-939.7-228.45a8.23,8.23,0,0,1,.21-16l1.23-.27a8.24,8.24,0,0,1,6.38,1.27l935.77,227.5a8.23,8.23,0,0,1-1.94,16.23Z"/><path class="cls-27" d="M2374.62,1992h0l-947.16-4.59a8.23,8.23,0,0,1-8.19-8.23l-.38-616.54a8.24,8.24,0,0,1,8.23-8.24h0a8.23,8.23,0,0,1,8.23,8.23l.38,608.36,930.7,4.51V1652.87a8.23,8.23,0,0,1,16.46,0v330.94a8.25,8.25,0,0,1-8.23,8.23Z"/><path class="cls-27" d="M2377.13,1931.64H1427.46a3,3,0,0,1,0-6h948.42L2500.08,1800a3,3,0,0,1,4.26,4.21l-125.08,126.53A3,3,0,0,1,2377.13,1931.64Z"/><path class="cls-27" d="M2377.13,1880.85H1427.46a3,3,0,0,1,0-6h948.42l124.2-125.65a3,3,0,0,1,4.26,4.21L2379.26,1880A3,3,0,0,1,2377.13,1880.85Z"/><path class="cls-27" d="M2377.13,1830.05H1427.46a3,3,0,0,1,0-6h948.42l124.2-125.64a3,3,0,0,1,4.26,4.21l-125.08,126.53A3,3,0,0,1,2377.13,1830.05Z"/><path class="cls-27" d="M2377.13,1779.26H1427.46a3,3,0,0,1,0-6h948.42l124.2-125.65a3,3,0,0,1,4.26,4.21l-125.08,126.54A3,3,0,0,1,2377.13,1779.26Z"/><path class="cls-27" d="M2377.13,1677.66H1427.46a3,3,0,0,1,0-6h949.67a3,3,0,1,1,0,6Z"/><path class="cls-27" d="M2377.13,1729.21H1427.46a3.75,3.75,0,0,1,0-7.49h948.12l124-124.18a3.74,3.74,0,0,1,5.3,5.29l-125.08,125.28A3.75,3.75,0,0,1,2377.13,1729.21Z"/><path class="cls-27" d="M2205.46,1626.87h-778a3,3,0,0,1,0-6h778a3,3,0,1,1,0,6Z"/><path class="cls-27" d="M2030.51,1576.07h-603a3,3,0,0,1,0-6h603.05a3,3,0,1,1,0,6Z"/><path class="cls-27" d="M1817.59,1525.28H1427.46a3,3,0,0,1,0-6h390.13a3,3,0,1,1,0,6Z"/><path class="cls-27" d="M1590.87,1988.28a8.24,8.24,0,0,1-8.23-8.23v-517.5a8.23,8.23,0,1,1,16.46,0v517.5A8.23,8.23,0,0,1,1590.87,1988.28Z"/><path class="cls-27" d="M1927.23,1986.64a7.59,7.59,0,0,1-7.59-7.59v-424.6a7.59,7.59,0,1,1,15.18,0v424.6A7.59,7.59,0,0,1,1927.23,1986.64Z"/><path class="cls-27" d="M2205.46,1989.92a7.1,7.1,0,0,1-7.1-7.1V1623.58a7.11,7.11,0,0,1,14.21,0v359.24A7.1,7.1,0,0,1,2205.46,1989.92Z"/></g></g></svg>